<?xml version="1.0" encoding="UTF-8"?>
<svg version="1.1" xmlns="http://www.w3.org/2000/svg" width="204" height="204">
<path d="M0 0 C-0.57120795 7.59141848 -1.56201288 15.01407753 -2.9375 22.5 C-3.10701172 23.47453125 -3.27652344 24.4490625 -3.45117188 25.453125 C-3.70543945 26.85304688 -3.70543945 26.85304688 -3.96484375 28.28125 C-4.1155835 29.11720703 -4.26632324 29.95316406 -4.42163086 30.81445312 C-5 33 -5 33 -7 36 C-9.27292941 34.98110061 -10.83024561 34.19097369 -12.5 32.3125 C-12.995 31.879375 -13.49 31.44625 -14 31 C-17.38815374 31.40151042 -18.94905085 32.61761376 -21.20703125 35.09765625 C-21.78984863 35.73010254 -22.37266602 36.36254883 -22.97314453 37.01416016 C-23.58013184 37.6901123 -24.18711914 38.36606445 -24.8125 39.0625 C-25.75778564 40.09576416 -25.75778564 40.09576416 -26.72216797 41.14990234 C-30.24993966 45.01792061 -33.72844945 48.92694655 -37.1484375 52.890625 C-39.80929014 55.9219761 -42.52536701 58.9009801 -45.25 61.875 C-46.03044678 62.73375732 -46.03044678 62.73375732 -46.82666016 63.60986328 C-49.11109092 66.0933924 -51.17850621 68.11900414 -54 70 C-58.85743929 65.83295817 -63.53019508 61.58155004 -68 57 C-75.19377528 60.15824281 -80.19013629 67.14480405 -85.20703125 72.98828125 C-87.74905978 75.84044834 -90.47758615 78.48861394 -93.19921875 81.16796875 C-95.31146524 83.31687027 -97.19266075 85.59021434 -99 88 C-102.78876322 87.40773357 -104.93470393 85.72332392 -107.8125 83.25 C-108.62332031 82.57453125 -109.43414062 81.8990625 -110.26953125 81.203125 C-112 79 -112 79 -112.17578125 76.66015625 C-110.41129654 72.66808288 -107.52543654 70.14709901 -104.375 67.1875 C-99.96929925 62.97437252 -95.78583834 58.69909147 -91.80810547 54.07739258 C-88.59110209 50.38127028 -85.2299416 46.82057112 -81.875 43.25 C-80.84052734 42.13818359 -80.84052734 42.13818359 -79.78515625 41.00390625 C-76.37428167 37.37129221 -73.02244541 33.97379233 -69 31 C-64.14256071 35.16704183 -59.46980492 39.41844996 -55 44 C-51.77629571 42.9254319 -51.25431079 42.3944369 -49.1875 39.875 C-46.6913033 36.9151469 -44.1261959 34.04923397 -41.46484375 31.23828125 C-40.83489502 30.5726416 -40.20494629 29.90700195 -39.5559082 29.22119141 C-38.2779115 27.8751663 -36.99654021 26.53233648 -35.71166992 25.19287109 C-35.11845947 24.56590332 -34.52524902 23.93893555 -33.9140625 23.29296875 C-33.3773291 22.7311792 -32.8405957 22.16938965 -32.28759766 21.59057617 C-30.7762411 19.91392214 -30.7762411 19.91392214 -30 17 C-31.98 15.02 -33.96 13.04 -36 11 C-35.41357422 9.13598633 -35.41357422 9.13598633 -34 7 C-31.08251953 5.7956543 -31.08251953 5.7956543 -27.3828125 4.82421875 C-26.72924774 4.64993851 -26.07568298 4.47565826 -25.40231323 4.2960968 C-24.02071578 3.9314425 -22.63700867 3.57470206 -21.25146484 3.2253418 C-19.13466634 2.68994489 -17.02652439 2.12743967 -14.91796875 1.56054688 C-3.65099332 -1.38260789 -3.65099332 -1.38260789 0 0 Z " fill="#2A3E53" transform="translate(156,56)"/>
<path d="M0 0 C2.56310636 1.86759006 4.33305561 3.86856331 6.33203125 6.32421875 C9.86558022 10.65727778 12.59916892 11.72974419 17.9375 12.984375 C22.81625348 14.44083811 25.96060281 17.53830332 28.6484375 21.7734375 C31.26144402 26.99034599 32.34976933 31.91147591 31.33203125 37.69921875 C28.88838717 44.9517453 24.20122235 50.2646232 17.33203125 53.69921875 C16.18089844 53.88871094 15.02976562 54.07820313 13.84375 54.2734375 C9.99339013 55.3774394 9.99339013 55.3774394 8.625 59.26953125 C8.22305787 60.77924874 7.85640383 62.29866271 7.51953125 63.82421875 C7.31924316 64.62085937 7.11895508 65.4175 6.91259766 66.23828125 C5.29544794 72.97884925 4.44810874 79.73572964 3.88671875 86.63671875 C3.61214844 88.15265625 3.61214844 88.15265625 3.33203125 89.69921875 C2.34203125 90.35921875 1.35203125 91.01921875 0.33203125 91.69921875 C-2.16796875 90.44921875 -2.16796875 90.44921875 -4.66796875 87.69921875 C-7.53052858 75.1039555 -1.36329728 57.89145997 4.33203125 46.69921875 C5.86700127 45.16424873 7.45120933 45.47238849 9.58203125 45.32421875 C13.52633956 44.92289008 16.15072394 44.2057033 19.33203125 41.69921875 C21.5513758 38.37020192 21.60333023 37.21128238 21.58203125 33.32421875 C21.5871875 32.38835938 21.59234375 31.4525 21.59765625 30.48828125 C21.31111145 27.47956083 20.77460878 25.3563535 19.33203125 22.69921875 C15.79688832 21.31954351 15.79688832 21.31954351 12.33203125 20.69921875 C12.39390625 21.95734375 12.45578125 23.21546875 12.51953125 24.51171875 C12.51004709 27.18625276 12.49639278 28.41374873 11.14453125 30.76171875 C8.5947446 32.08057391 7.01457027 31.49673035 4.33203125 30.69921875 C3.74998243 27.37322546 3.28700583 24.13189849 3.01953125 20.76171875 C2.4473275 16.23610728 1.02031321 13.40468848 -1.66796875 9.69921875 C-6.58596067 6.06927233 -11.77800047 5.99894565 -17.66796875 6.69921875 C-23.27774241 8.673028 -26.12658865 11.84766557 -28.91796875 17.01171875 C-29.16546875 17.56859375 -29.41296875 18.12546875 -29.66796875 18.69921875 C-28.61609375 18.80234375 -27.56421875 18.90546875 -26.48046875 19.01171875 C-22.72053778 19.68973909 -20.59949434 20.2850212 -17.66796875 22.69921875 C-16.66796875 25.19921875 -16.66796875 25.19921875 -16.66796875 27.69921875 C-18.16796875 29.35546875 -18.16796875 29.35546875 -19.66796875 30.69921875 C-20.30863281 30.48265625 -20.94929688 30.26609375 -21.609375 30.04296875 C-30.03923518 27.32933268 -35.64093034 26.84006567 -43.66796875 30.69921875 C-45.15296875 31.19421875 -45.15296875 31.19421875 -46.66796875 31.69921875 C-49.97215786 36.94704851 -51.19674066 42.56546462 -50.66796875 48.69921875 C-49.07696027 55.32427751 -46.45219128 58.33407967 -40.66796875 61.94921875 C-38.24447199 62.85803003 -36.23787527 62.74994059 -33.66796875 62.69921875 C-33.96832031 62.05855469 -34.26867187 61.41789062 -34.578125 60.7578125 C-37.03074294 55.17914594 -38.2195669 51.64701165 -36.66796875 45.69921875 C-34.19296875 45.20421875 -34.19296875 45.20421875 -31.66796875 44.69921875 C-28.00264101 49.5863224 -26.22437587 54.35398369 -24.54296875 60.19921875 C-24.28797607 61.07980957 -24.0329834 61.96040039 -23.77026367 62.86767578 C-18.40439986 81.94591689 -18.40439986 81.94591689 -20.671875 86.88671875 C-22.04296875 88.57421875 -22.04296875 88.57421875 -24.66796875 90.69921875 C-25.98796875 90.36921875 -27.30796875 90.03921875 -28.66796875 89.69921875 C-29.32796875 84.41921875 -29.98796875 79.13921875 -30.66796875 73.69921875 C-32.46234375 73.49296875 -34.25671875 73.28671875 -36.10546875 73.07421875 C-43.80956728 71.78414565 -49.36776167 68.53476383 -54.54296875 62.69921875 C-59.52009848 55.67268266 -61.61623447 49.24696613 -60.66796875 40.69921875 C-58.60980758 32.98405458 -55.067755 26.3661661 -48.12890625 22.16015625 C-41.41971456 18.69921875 -41.41971456 18.69921875 -38.66796875 18.69921875 C-38.58546875 17.83296875 -38.50296875 16.96671875 -38.41796875 16.07421875 C-36.77756515 8.69240253 -31.51320599 4.08314668 -25.66796875 -0.30078125 C-17.25979758 -5.21876816 -8.37008148 -4.60024951 0 0 Z " fill="#394A5E" transform="translate(99.66796875,3.30078125)"/>
<path d="M0 0 C7.68778003 1.79231235 13.28332856 5.69661421 18 12 C22.18512516 19.23530113 23.3502882 26.44693977 21.375 34.5703125 C18.69961891 42.38146979 13.80138486 48.09976887 6.57519531 52.08740234 C-1.30101554 55.49768192 -10.28472662 54.48714009 -18.69140625 54.390625 C-20.60667833 54.38315512 -22.52195811 54.37746572 -24.4372406 54.37347412 C-29.45315025 54.3582766 -34.46858903 54.31904603 -39.48431396 54.2746582 C-44.61252475 54.23357801 -49.74081237 54.21543598 -54.86914062 54.1953125 C-64.91296613 54.15254563 -74.95644375 54.08436627 -85 54 C-84.13197017 49.69061067 -82.49620363 47.74912136 -79 45 C-75.59472656 44.44824219 -75.59472656 44.44824219 -71.640625 44.546875 C-70.91494827 44.55686523 -70.18927155 44.56685547 -69.44160461 44.57714844 C-67.86794428 44.60105261 -66.29442211 44.63609253 -64.72122192 44.68103027 C-61.354955 44.77497995 -57.988898 44.80890784 -54.62159729 44.84576416 C-52.84457906 44.86543477 -51.06758824 44.88773924 -49.29063416 44.91253662 C-39.94799558 45.03804418 -30.61221241 44.97383067 -21.27062988 44.79650879 C-19.47525747 44.76567548 -17.67973133 44.74271769 -15.88415527 44.72790527 C-13.36089819 44.70682612 -10.83919733 44.66108831 -8.31640625 44.609375 C-7.57626785 44.6081665 -6.83612946 44.60695801 -6.07356262 44.60571289 C-0.55031243 44.44974844 2.55199596 43.06136525 7 40 C11.14586417 34.65401726 12.44231417 30.7452911 12 24 C10.60927683 17.78888888 8.16916087 14.62941082 3 11 C-0.82234784 9.08882608 -5.61490295 10.05263583 -9.8125 10.16015625 C-13 10 -13 10 -15 8 C-14.79160277 5.29083599 -14.41478069 3.5486656 -12.765625 1.3671875 C-9.14063438 -1.43977427 -4.33549989 -0.49499802 0 0 Z " fill="#1F2B3D" transform="translate(147,94)"/>
<path d="M0 0 C0.721875 0.00257813 1.44375 0.00515625 2.1875 0.0078125 C2.909375 0.00523437 3.63125 0.00265625 4.375 0 C6.1875 0.1328125 6.1875 0.1328125 7.1875 1.1328125 C7.42428716 3.82517026 7.60948025 6.49779406 7.75 9.1953125 C7.79318359 9.95392578 7.83636719 10.71253906 7.88085938 11.49414062 C7.98723633 13.37346688 8.08789934 15.25311494 8.1875 17.1328125 C8.99574219 16.32457031 9.80398437 15.51632813 10.63671875 14.68359375 C17.07421875 8.24609375 17.07421875 8.24609375 18.66870117 6.66918945 C20.08202599 5.23950724 21.43460975 3.75047398 22.78125 2.2578125 C25.1875 0.1328125 25.1875 0.1328125 27.64453125 -0.35546875 C28.81048828 -0.26845703 28.81048828 -0.26845703 30 -0.1796875 C30.79019531 -0.13457031 31.58039063 -0.08945313 32.39453125 -0.04296875 C32.98621094 0.01503906 33.57789063 0.07304687 34.1875 0.1328125 C34.1875 4.1328125 34.1875 4.1328125 32.359375 6.31640625 C31.16054687 7.43208984 31.16054687 7.43208984 29.9375 8.5703125 C26.75367953 11.60873014 23.81812524 14.58718717 21.1875 18.1328125 C22.69108042 22.9015646 25.36763057 25.97198792 28.625 29.6328125 C31.87099354 33.30961464 34.80727712 36.80806856 37.1875 41.1328125 C34.81709692 43.50321558 34.12447247 43.47747043 30.875 43.5703125 C27.52690491 43.46368527 26.43298503 43.30644825 23.625 41.3203125 C22.77344385 40.28885013 21.96928397 39.21811261 21.1875 38.1328125 C20.50171875 37.215 19.8159375 36.2971875 19.109375 35.3515625 C17.10497445 32.63230581 15.13538494 29.89271895 13.1875 27.1328125 C9.25916959 29.72823268 9.25916959 29.72823268 7.48046875 33.9296875 C7.44566406 34.90421875 7.41085938 35.87875 7.375 36.8828125 C7.32730469 37.86765625 7.27960938 38.8525 7.23046875 39.8671875 C7.20919922 40.98867187 7.20919922 40.98867187 7.1875 42.1328125 C2.68864053 42.99797778 0.17102209 43.44184522 -3.8125 41.1328125 C-3.69457014 35.45435718 -3.57034597 29.77608855 -3.44018555 24.09790039 C-3.39676959 22.16467065 -3.35509958 20.23140091 -3.31518555 18.2980957 C-3.25764369 15.52543048 -3.1939038 12.75296793 -3.12890625 9.98046875 C-3.11219376 9.11067886 -3.09548126 8.24088898 -3.07826233 7.34474182 C-2.90061333 0.21254494 -2.90061333 0.21254494 0 0 Z " fill="#314257" transform="translate(117.8125,158.8671875)"/>
<path d="M0 0 C1.06734375 -0.00257813 2.1346875 -0.00515625 3.234375 -0.0078125 C4.91273437 0.00378906 4.91273437 0.00378906 6.625 0.015625 C7.74390625 0.00789062 8.8628125 0.00015625 10.015625 -0.0078125 C11.08296875 -0.00523437 12.1503125 -0.00265625 13.25 0 C14.23226562 0.00225586 15.21453125 0.00451172 16.2265625 0.00683594 C18.625 0.265625 18.625 0.265625 20.625 2.265625 C20.875 4.765625 20.875 4.765625 20.625 7.265625 C18.625 9.265625 18.625 9.265625 14.9296875 9.4609375 C13.45299892 9.447634 11.97637642 9.42377335 10.5 9.390625 C9.74589844 9.38160156 8.99179688 9.37257812 8.21484375 9.36328125 C6.35142746 9.3396937 4.48817407 9.30382219 2.625 9.265625 C2.625 10.915625 2.625 12.565625 2.625 14.265625 C3.94564453 14.50345703 3.94564453 14.50345703 5.29296875 14.74609375 C13.37737138 16.37015244 17.22317443 17.40587419 21.9375 24.140625 C23.40761481 28.68461623 23.14857038 32.15303794 21.125 36.453125 C17.32988719 40.72262691 13.68513645 42.86392567 7.9765625 43.61328125 C2.06412654 43.80373787 -4.17445524 43.32880301 -9.375 40.265625 C-10.62109375 38.15625 -10.62109375 38.15625 -11.375 36.265625 C-9.395 33.295625 -9.395 33.295625 -7.375 30.265625 C-6.67375 30.49378906 -5.9725 30.72195312 -5.25 30.95703125 C0.89174477 32.81791316 5.3266758 33.57282436 11.625 32.265625 C11.28272428 29.29496991 11.28272428 29.29496991 10.625 26.265625 C6.94284107 24.42454554 2.38308226 24.850596 -1.69726562 24.66015625 C-7.27426145 24.36636355 -7.27426145 24.36636355 -8.375 23.265625 C-8.46761334 19.78480142 -8.22872017 16.30508661 -8.0625 12.828125 C-8.02705078 11.84779297 -7.99160156 10.86746094 -7.95507812 9.85742188 C-7.91189453 8.92091797 -7.86871094 7.98441406 -7.82421875 7.01953125 C-7.78643311 6.15658447 -7.74864746 5.2936377 -7.7097168 4.40454102 C-6.97542331 -0.28776039 -4.04201058 0.00928283 0 0 Z " fill="#2E3F53" transform="translate(88.375,158.734375)"/>
<path d="M0 0 C1.1127832 -0.01836914 1.1127832 -0.01836914 2.24804688 -0.03710938 C4.18763629 -0.04238478 6.1267371 0.06561098 8.0625 0.1875 C10.7027154 2.8277154 10.30052723 4.7424294 10.31474304 8.33460999 C10.30755753 9.17422775 10.30037201 10.01384552 10.29296875 10.87890625 C10.29228142 12.16957253 10.29228142 12.16957253 10.2915802 13.48631287 C10.28855705 15.30623757 10.28066888 17.12615967 10.26831055 18.94604492 C10.25005148 21.74211724 10.24780085 24.53785866 10.24804688 27.33398438 C10.2431319 29.09896122 10.23730367 30.8639358 10.23046875 32.62890625 C10.22935593 33.47054825 10.2282431 34.31219025 10.22709656 35.17933655 C10.17854705 41.07145295 10.17854705 41.07145295 9.0625 42.1875 C7.56511876 42.2854057 6.06307108 42.31724864 4.5625 42.3125 C3.7478125 42.31507813 2.933125 42.31765625 2.09375 42.3203125 C0.0625 42.1875 0.0625 42.1875 -0.9375 41.1875 C-1.0258967 38.8118148 -1.05280305 36.46541326 -1.03515625 34.08984375 C-1.0337413 33.38098526 -1.03232635 32.67212677 -1.03086853 31.94178772 C-1.02525443 29.66948288 -1.01269963 27.39727525 -1 25.125 C-0.99498681 23.58789204 -0.99042359 22.05078255 -0.98632812 20.51367188 C-0.97528042 16.73824358 -0.95800641 12.96288829 -0.9375 9.1875 C-2.6390625 9.2184375 -2.6390625 9.2184375 -4.375 9.25 C-7.9375 9.1875 -7.9375 9.1875 -8.9375 8.1875 C-9.0625 4.6875 -9.0625 4.6875 -8.9375 1.1875 C-6.89483571 -0.85516429 -2.80058566 0.00242056 0 0 Z " fill="#243245" transform="translate(63.9375,158.8125)"/>
<path d="M0 0 C1.125 2.3125 1.125 2.3125 2 5 C1.01 6.485 1.01 6.485 0 8 C-2.80672224 8.41727482 -5.53580739 8.43946353 -8.37109375 8.49609375 C-11.11190161 8.76526181 -11.11190161 8.76526181 -12.8359375 10.84765625 C-14.21288324 13.03362439 -14.21288324 13.03362439 -14.1875 16 C-12.80414283 19.49479705 -12.27577716 19.60986632 -9 21.0625 C-8.28070313 21.37058594 -7.56140625 21.67867187 -6.8203125 21.99609375 C-5 23 -5 23 -3.875 25.625 C-4 28 -4 28 -6 30 C-10.73546492 30.36936626 -14.34592427 29.39971295 -18.375 26.9375 C-21.88751651 23.00682676 -24.14997777 19.33075628 -23.90625 13.91796875 C-22.90999283 8.90794472 -20.71965297 5.55433506 -17 2 C-11.15781829 -1.55113006 -6.47481394 -1.08130696 0 0 Z " fill="#2A3549" transform="translate(65,80)"/>
<path d="M0 0 C4.55555556 0.55555556 4.55555556 0.55555556 6 2 C6.09983058 3.98757028 6.13080753 5.9786752 6.1328125 7.96875 C6.13474609 9.78439453 6.13474609 9.78439453 6.13671875 11.63671875 C6.13285156 12.91160156 6.12898438 14.18648437 6.125 15.5 C6.12886719 16.77488281 6.13273437 18.04976562 6.13671875 19.36328125 C6.13542969 20.57371094 6.13414063 21.78414062 6.1328125 23.03125 C6.13168457 24.15080078 6.13055664 25.27035156 6.12939453 26.42382812 C6 29 6 29 5 30 C2.5625 30.1875 2.5625 30.1875 0 30 C-3.97025088 26.02974912 -3.05083948 18.70767779 -3.125 13.3125 C-2.97841727 2.97841727 -2.97841727 2.97841727 0 0 Z " fill="#415263" transform="translate(85,54)"/>
<path d="M0 0 C0.66 0 1.32 0 2 0 C1.53292113 4.34586428 -1.06659251 6.33326261 -4.125 9.25 C-7.98376662 12.99033107 -11.67319792 16.78813415 -15.1640625 20.875 C-17.54126681 23.62648754 -19.98757535 26.31345686 -22.4375 29 C-23.30246094 29.94875 -24.16742188 30.8975 -25.05859375 31.875 C-25.69925781 32.57625 -26.33992188 33.2775 -27 34 C-32.06976938 31.93143844 -35.50217098 27.79251064 -39.34375 24.01953125 C-41.74222492 21.74842945 -41.74222492 21.74842945 -44.2421875 22.1015625 C-46.23637186 23.12081228 -47.46076675 24.39080161 -49 26 C-49.66 26 -50.32 26 -51 26 C-50.44449305 22.40094092 -49.25112752 21.00090201 -46.4375 18.75 C-45.79683594 18.22921875 -45.15617187 17.7084375 -44.49609375 17.171875 C-44.00238281 16.78515625 -43.50867188 16.3984375 -43 16 C-38.14256071 20.16704183 -33.46980492 24.41844996 -29 29 C-25.50913078 27.53383493 -23.58281186 25.66719588 -21.125 22.8125 C-17.01791498 18.12946316 -12.81917204 13.54761924 -8.5625 9 C-7.94713379 8.34104736 -7.33176758 7.68209473 -6.69775391 7.00317383 C-4.4893088 4.64154356 -2.28648195 2.28648195 0 0 Z " fill="#5F829A" transform="translate(130,81)"/>
<path d="M0 0 C-0.46707887 4.34586428 -3.06659251 6.33326261 -6.125 9.25 C-7.13223832 10.22316373 -8.13744413 11.19843545 -9.140625 12.17578125 C-9.63111328 12.65354004 -10.12160156 13.13129883 -10.62695312 13.62353516 C-12.47732653 15.47851476 -14.18091397 17.43982775 -15.875 19.4375 C-18.34721222 22.33862614 -20.90238445 24.74718869 -24 27 C-22.89380471 21.46902355 -20.09439617 18.81328206 -16.15625 15.08203125 C-14.08012456 13.07736665 -12.19188153 11.00099033 -10.3125 8.8125 C-2.69933432 0 -2.69933432 0 0 0 Z " fill="#81AFBE" transform="translate(132,81)"/>
<path d="M0 0 C1.12341797 -0.01224609 2.24683594 -0.02449219 3.40429688 -0.03710938 C5.01208008 -0.04000977 5.01208008 -0.04000977 6.65234375 -0.04296875 C8.13528931 -0.04913208 8.13528931 -0.04913208 9.64819336 -0.05541992 C12.0625 0.1875 12.0625 0.1875 14.0625 2.1875 C14.1875 4.8125 14.1875 4.8125 14.0625 7.1875 C13.0725 7.6825 13.0725 7.6825 12.0625 8.1875 C12.0625 6.5375 12.0625 4.8875 12.0625 3.1875 C11.16789062 3.28289062 10.27328125 3.37828125 9.3515625 3.4765625 C1.84031386 4.16522709 -4.65015596 4.21922495 -11.9375 2.1875 C-11.9375 4.4975 -11.9375 6.8075 -11.9375 9.1875 C-12.2675 9.1875 -12.5975 9.1875 -12.9375 9.1875 C-13.03515625 3.03515625 -13.03515625 3.03515625 -12.9375 1.1875 C-10.40440278 -1.34559722 -3.40755092 0.00194829 0 0 Z " fill="#36424F" transform="translate(94.9375,158.8125)"/>
<path d="M0 0 C0 4.0014712 -1.37083372 4.85612173 -4.0625 7.75 C-4.88621094 8.63945313 -5.70992187 9.52890625 -6.55859375 10.4453125 C-9.09984421 13.10447698 -11.68769511 15.70505261 -14.3125 18.28125 C-16.78066428 20.79512102 -19.05625029 23.46509627 -21.35546875 26.1328125 C-23.47130895 28.53512038 -25.7024661 30.77208834 -28 33 C-28.66 32.67 -29.32 32.34 -30 32 C-29.12859375 31.06800781 -28.2571875 30.13601562 -27.359375 29.17578125 C-20.85136236 22.21104984 -14.35183363 15.23943701 -7.90917969 8.21411133 C-5.33252985 5.41184575 -2.71410263 2.6695047 0 0 Z " fill="#374553" transform="translate(85,88)"/>
<path d="M0 0 C4.55555556 0.55555556 4.55555556 0.55555556 6 2 C6.08748207 3.92667507 6.10697334 5.85651861 6.09765625 7.78515625 C6.09443359 8.95498047 6.09121094 10.12480469 6.08789062 11.33007812 C6.07951172 12.56177734 6.07113281 13.79347656 6.0625 15.0625 C6.05798828 16.29806641 6.05347656 17.53363281 6.04882812 18.80664062 C6.03699608 21.87114117 6.02051173 24.93554721 6 28 C5.67 28 5.34 28 5 28 C5 21.07 5 14.14 5 7 C3.35 7.33 1.7 7.66 0 8 C-0.66 8.99 -1.32 9.98 -2 11 C-2.05399736 9.54207116 -2.09279177 8.08357288 -2.125 6.625 C-2.15980469 5.40683594 -2.15980469 5.40683594 -2.1953125 4.1640625 C-2 2 -2 2 0 0 Z " fill="#97C1CD" transform="translate(85,54)"/>
<path d="M0 0 C1.65 0 3.3 0 5 0 C5 3.3 5 6.6 5 10 C3.02 10.33 1.04 10.66 -1 11 C-2.23076923 4.6 -2.23076923 4.6 -1.0625 1.5625 C-0.711875 1.046875 -0.36125 0.53125 0 0 Z " fill="#567183" transform="translate(85,61)"/>
<path d="M0 0 C0.721875 0.00257813 1.44375 0.00515625 2.1875 0.0078125 C2.909375 0.00523437 3.63125 0.00265625 4.375 0 C6.1875 0.1328125 6.1875 0.1328125 7.1875 1.1328125 C7.27401611 2.54851373 7.29454904 3.9684075 7.28515625 5.38671875 C7.28193359 6.24072266 7.27871094 7.09472656 7.27539062 7.97460938 C7.26701172 8.87244141 7.25863281 9.77027344 7.25 10.6953125 C7.24548828 11.59701172 7.24097656 12.49871094 7.23632812 13.42773438 C7.22450225 15.66282564 7.2080222 17.89778687 7.1875 20.1328125 C6.8575 20.1328125 6.5275 20.1328125 6.1875 20.1328125 C6.1875 14.5228125 6.1875 8.9128125 6.1875 3.1328125 C4.2075 3.7928125 2.2275 4.4528125 0.1875 5.1328125 C-1.26410938 8.15061122 -1.26410938 8.15061122 -1.8125 11.1328125 C-2.1425 11.1328125 -2.4725 11.1328125 -2.8125 11.1328125 C-2.83938151 9.48706684 -2.85884123 7.84119837 -2.875 6.1953125 C-2.88660156 5.27878906 -2.89820312 4.36226562 -2.91015625 3.41796875 C-2.79196538 0.65230237 -2.76200837 0.20238854 0 0 Z " fill="#99A2AA" transform="translate(117.8125,158.8671875)"/>
<path d="M0 0 C0.33 0.66 0.66 1.32 1 2 C1.66 2.33 2.32 2.66 3 3 C1.04761147 5.00612399 -0.91137822 7.00492433 -2.875 9 C-3.43058594 9.57234375 -3.98617187 10.1446875 -4.55859375 10.734375 C-6.00134404 12.19450782 -7.4974374 13.60149298 -9 15 C-9.66 15 -10.32 15 -11 15 C-9.58319756 10.67953102 -7.46236215 7.99538801 -4.375 4.6875 C-3.55773437 3.80449219 -2.74046875 2.92148438 -1.8984375 2.01171875 C-0.95871094 1.01591797 -0.95871094 1.01591797 0 0 Z " fill="#2C4967" transform="translate(78,105)"/>
<path d="M0 0 C0.66 0.66 1.32 1.32 2 2 C2.66 1.67 3.32 1.34 4 1 C2.4169423 5.2742558 -0.50568404 7.26531794 -4 10 C-4 9.34 -4 8.68 -4 8 C-5.98 8.99 -5.98 8.99 -8 10 C-6.34908222 5.70761377 -3.26245434 3.1206085 0 0 Z " fill="#4B6980" transform="translate(136,73)"/>
<path d="M0 0 C-0.84801704 5.05462789 -4.11514652 7.89211722 -8 11 C-10.9375 11.9375 -10.9375 11.9375 -13 12 C-2.93659942 0 -2.93659942 0 0 0 Z " fill="#688AA0" transform="translate(132,81)"/>
<path d="M0 0 C0.33 0 0.66 0 1 0 C1.33 3.63 1.66 7.26 2 11 C3.32 10.67 4.64 10.34 6 10 C6.33 6.7 6.66 3.4 7 0 C7.33 0 7.66 0 8 0 C8.08121924 1.60332791 8.13929134 3.20784026 8.1875 4.8125 C8.22230469 5.70582031 8.25710937 6.59914063 8.29296875 7.51953125 C8 10 8 10 6.65625 11.84375 C5 13 5 13 2.3125 12.6875 C1.549375 12.460625 0.78625 12.23375 0 12 C-0.92844389 7.66726186 -0.92844389 4.33273814 0 0 Z " fill="#667782" transform="translate(104,22)"/>
<path d="M0 0 C4.6927808 0.46007655 8.29845255 0.95166681 12 4 C13 6.5 13 6.5 13 9 C11.5625 10.8125 11.5625 10.8125 10 12 C8.68 11.34 7.36 10.68 6 10 C7.65 9.01 9.3 8.02 11 7 C8.93243723 4.2027092 7.85559629 3.97307727 4.3125 3.3125 C3.219375 3.209375 2.12625 3.10625 1 3 C0.67 2.01 0.34 1.02 0 0 Z " fill="#5F6A73" transform="translate(70,22)"/>
<path d="M0 0 C0.66 0.33 1.32 0.66 2 1 C0.23000902 2.93827536 -1.54095761 4.87564344 -3.3125 6.8125 C-3.81201172 7.35970703 -4.31152344 7.90691406 -4.82617188 8.47070312 C-7.16943128 11.03121837 -9.51144854 13.57939534 -12 16 C-12.66 15.67 -13.32 15.34 -14 15 C-9.38 10.05 -4.76 5.1 0 0 Z " fill="#3E4B59" transform="translate(69,105)"/>
<path d="M0 0 C0 1.65 0 3.3 0 5 C-0.99 5.495 -0.99 5.495 -2 6 C-2 4.35 -2 2.7 -2 1 C-3.46373047 1.14308594 -3.46373047 1.14308594 -4.95703125 1.2890625 C-6.22933594 1.39992187 -7.50164062 1.51078125 -8.8125 1.625 C-10.70935547 1.79902344 -10.70935547 1.79902344 -12.64453125 1.9765625 C-16 2 -16 2 -19 0 C-16.20865148 -0.19425873 -13.41716313 -0.38069517 -10.625 -0.5625 C-9.8309375 -0.61857422 -9.036875 -0.67464844 -8.21875 -0.73242188 C-2.2265625 -1.11328125 -2.2265625 -1.11328125 0 0 Z " fill="#4D5E6E" transform="translate(109,161)"/>
<path d="M0 0 C2.97 0 5.94 0 9 0 C9 1.32 9 2.64 9 4 C8.01 4.66 7.02 5.32 6 6 C6 4.68 6 3.36 6 2 C3.69 2 1.38 2 -1 2 C-0.67 1.34 -0.34 0.68 0 0 Z " fill="#4F5D67" transform="translate(143,159)"/>
<path d="M0 0 C1.2065625 0.0309375 1.2065625 0.0309375 2.4375 0.0625 C2.4375 1.7125 2.4375 3.3625 2.4375 5.0625 C0.7875 5.0625 -0.8625 5.0625 -2.5625 5.0625 C-3.2225 6.3825 -3.8825 7.7025 -4.5625 9.0625 C-3.56521739 0.08695652 -3.56521739 0.08695652 0 0 Z " fill="#7092A4" transform="translate(87.5625,60.9375)"/>
<path d="M0 0 C2.9375 0.8125 2.9375 0.8125 6 2 C6.33 2.99 6.66 3.98 7 5 C6.21625 5.103125 5.4325 5.20625 4.625 5.3125 C1.66954819 5.77595022 1.66954819 5.77595022 0 9 C0 6.03 0 3.06 0 0 Z " fill="#81ACBE" transform="translate(83,56)"/>
<path d="M0 0 C3.17896475 0.06935923 5.42117618 0.44745079 8.125 2.25 C8.125 2.58 8.125 2.91 8.125 3.25 C1.195 2.755 1.195 2.755 -5.875 2.25 C-3.875 0.25 -3.875 0.25 0 0 Z " fill="#4E5E6B" transform="translate(96.875,174.75)"/>
<path d="M0 0 C0.33 0.66 0.66 1.32 1 2 C1.99 2.33 2.98 2.66 4 3 C1.0534615 4.80066242 -1.88801935 6.50163895 -5 8 C-4.45773019 4.20411134 -2.79872437 2.52788007 0 0 Z " fill="#50728C" transform="translate(84,99)"/>
<path d="M0 0 C0.33 0.66 0.66 1.32 1 2 C1.66 2.33 2.32 2.66 3 3 C1.1875 5 1.1875 5 -1 7 C-1.99 7 -2.98 7 -4 7 C-2.92598892 4.08482708 -2.22189824 2.22189824 0 0 Z " fill="#395B77" transform="translate(78,105)"/>
<path d="M0 0 C2.8125 0.125 2.8125 0.125 6 1 C7.875 4.0625 7.875 4.0625 9 7 C7.68 6.34 6.36 5.68 5 5 C5 4.34 5 3.68 5 3 C2.525 2.01 2.525 2.01 0 1 C0 0.67 0 0.34 0 0 Z " fill="#5C7385" transform="translate(114,23)"/>
<path d="M0 0 C0.33 0.99 0.66 1.98 1 3 C-1.31 4.98 -3.62 6.96 -6 9 C-5.67 7.68 -5.34 6.36 -5 5 C-4.01 4.67 -3.02 4.34 -2 4 C-2 3.34 -2 2.68 -2 2 C-1.34 2 -0.68 2 0 2 C0 1.34 0 0.68 0 0 Z " fill="#596672" transform="translate(65,131)"/>
<path d="M0 0 C0.6875 1.75 0.6875 1.75 1 4 C-0.3125 6.25 -0.3125 6.25 -2 8 C-2.66 8 -3.32 8 -4 8 C-3.40072174 4.64404172 -2.15377564 2.62198774 0 0 Z " fill="#628C9D" transform="translate(108,104)"/>
<path d="M0 0 C0 3 0 3 -2.5 5.6875 C-3.325 6.450625 -4.15 7.21375 -5 8 C-5.33 7.01 -5.66 6.02 -6 5 C-4.02 3.35 -2.04 1.7 0 0 Z " fill="#7BA5B8" transform="translate(122,91)"/>
<path d="M0 0 C0.66 0.66 1.32 1.32 2 2 C-0.97 4.475 -0.97 4.475 -4 7 C-4 4 -4 4 -2 1.8125 C-1.34 1.214375 -0.68 0.61625 0 0 Z " fill="#23313E" transform="translate(111,91)"/>
<path d="M0 0 C0.66 0.33 1.32 0.66 2 1 C0.95125002 3.62187494 0.35068687 4.79371361 -2.125 6.25 C-2.74375 6.4975 -3.3625 6.745 -4 7 C-2.79618552 4.50638429 -1.54571278 2.31856917 0 0 Z " fill="#516573" transform="translate(116,85)"/>
</svg>
